<svg xmlns="http://www.w3.org/2000/svg" xml:space="preserve" width="1258.719" height="571.682" viewBox="0 0 2601.09 734.135"><path d="M2393.544 37.651c3.766-5.459 8.62-12.731 16.307-11.401-.259 4.336-.846 8.689-2.453 12.749-20.49 26.559-18.219 61.024-1.986 76.959-1.607-7.774-5.545-15.081-5.718-23.096 6.245-24.746 20.589-25.144 49.388-36.07 14.91-5.722 14.241-6.588 22.25-6.098-.017 1.088-.034 3.282-.052 4.371-17.932 20.099-40.158 11.417-51.047 26.655-8.067 10.538-2.401 24.34-.363 35.966 2.85-7.428 4.042-15.703 8.62-22.354 7.978-5.765 26.142-9.438 35.517-12.541 3.351-3.092 6.253-6.633 9.294-10.019 2.384-1.434 5.131-1.831 7.877-2.315.916 8.223-2.764 16.169-9.933 20.419 4.129 1.399 11.643 4.837 8.136 10.365-12.085-.826-16.256-11.378-39.3-1.365-8.965 4.958-8.844 16.653-11.47 25.359 9.817-9.914 18.59-24.73 23.304-11.885-8.154 3.783-13.699 12.317-15.15 20.902 3.369 6.115 11.419 7.376 17.568 9.432 12.771 3.763 11.661 1.934 19.417 16.29 9.484.674 18.657-1.987 27.64-4.716 8.948-.656 16.722 7.48 25.584 4.353 11.629-3.588 26.036-20.89 24.392 3.887-1.382 6.53 2.954 12.213 3.783 18.536-5.373 2.919-11.401 3.576-17.378 3.714-17.786 16.077-17.685 10.722-15.564 19.469 2.184 6.553 8.075 17.466 15.737 26.223 9.144 10.629 13.519 10.876 15.461 41.027-2.038-3.351-3.99-6.754-5.891-10.158 1.002 11.194 1.987 22.924-2.85 33.461-1.192-2.608-2.177-5.217-3.282-7.808-.623 15.7-5.28 23.235-6.53 25.567-.19-1.969-.587-5.908-.777-7.877-5.182 11.056-10.227 23.839-22.82 28.279 1.417-3.127 3.109-6.184 4.681-9.259-2.159 1.555-4.319 3.109-6.426 4.664 2.315 9.518 8.983 16.895 14.252 24.876 12.203 3.569 13.086 3.824 23.044 5.649 22.619 3.979 10.545 14.963 33.738 45.484-.225 2.021-.345 4.042-.484 6.081-9.076 11.42-14.926 7.883-22.647 14.925-9.158 22.502.509 23.008-19.365 35.966-18.119 11.29-20.834 30.125-62.137 47.195 2.09-8.603 1.365-17.413 1.175-26.154-.242-7.014 7.825-7.514 12.852-8.81 6.288-2.488 13.992 1.987 19.106-3.61 36.466-31.909 26.483-19.631 31.734-35.707-10.624 5.925-21.3 11.73-32.062 17.344-10.199 6.612-23.076 19.254-39.991 17.793 4.06-10.071 3.852-21.092 6.409-31.509 1.486-2.073 3.196-4.422 6.184-3.559 33.976 3.157 27.372 3.006 42.582-4.561 6.616-3.576 13.491-6.927 19.296-11.833 1.979-7.325-2.648-5.597-30.922-39.697-89.847-5.229-82.022.271-82.089-20.125-88.159 14.663-106.968-22.098-125.104-24.997-10.296 3.766-15.582 14.908-25.48 19.607-28.585 15.038-66.694-8.929-90.398 18.864-28.003 31.553-60.738 38.445-53.776 48.991 2.764 7.014 8.465 12.179 13.267 17.793 3.386 3.645 3.213 8.879 3.87 13.492-9.208 3.127-18.968 3.783-28.573 4.405-17.156-37.574-17.256-33.895-10.486-58.769 3.956.95 7.825 2.522 11.989 2.591 3.541-1.572 6.53-4.129 9.795-6.219 9.799-5.812 17.29-5.735 26.378-23.494 11.054-21.656 11.884-38.52 15.167-48.818 42.665 1.132 51.506-13.782 59.304-32.425-94.812 9.205-106.094 42.9-239.22 155.542-4.664 2.522-5.942 7.324-6.046 12.265-1.382-1.779-2.764-3.524-4.111-5.286.553 8.672.259 17.378-1.036 25.964a356.021 356.021 0 0 1-3.42-9.035c-1.606 11.885-4.301 25.325-15.271 32.235.674-3.334 1.624-6.616 2.453-9.916a634.75 634.75 0 0 0-5.58 6.841c4.82 7.756 11.781 13.837 18.743 19.624 10.126 5.346 34.46-4.029 41.39 7.325 9.044 14.78 22.29 27.47 27.363 33.375-1.054 11.194-12.161 16.048-19.572 22.699-.57 8.43-.276 16.877-.795 25.29-1.658 8.879-10.278 13.595-14.96 20.695-20.155 29.955-13.956 29.776-45.208 53.863-.151-21.045-9.245-28.712-1.883-33.202 6.392-3.524 13.111-8.292 20.833-6.927 10.555-10.762 17.948-24.167 27.881-35.5 0-3.714 0-7.428.017-11.142-8.637 7.566-17.137 15.288-26.033 22.544-10.52 10.918-19.97 25.117-36.242 27.45.915-9-.052-18-.656-26.966.514-14.028-.031-7.809 33.945-14.545 10.227-7.549 19.762-16.065 28.521-25.29-1.382-3.058-2.609-6.53-5.873-8.05-11.868-6.858-22.267-15.91-33.737-23.321 0 0-31.861 6.051-76.527 12.023-6.72-.518-6.564-9.19-7.946-14.113-17.828 7.808-37.003 12.058-56.177 14.874-42.383 5.965-65.836-18.792-74.575-9.156-7.463 8.689-12.092 20.194-22.353 26.24-27.719 15.975-64.466 3.943-80.535 37.21-21.03 36.644-39.969 38.636-41.235 54.484 3.766 7.912 11.971 11.902 18.449 17.206 3.87 2.937 4.958 7.86 6.305 12.265-8.447 4.578-17.603 7.549-26.741 10.365-17.575-22.07-26.994-31.478-22.785-54.985 3.887-.311 7.946.743 11.764-.38 5.407-4.474 9.622-10.261 15.444-14.303 7.1-4.854 10.589-13.077 12.887-21.041 9.702-34.993-1.184-52.015 7.739-53.12 61.546-15.671 41.432-42.737 51.22-79.792-29.067-8.074 20.064 6.568-125.708-64.884 13.347 30.811 25.109 24.015-8.914 42.168-2.453 7.635-3.956 15.513-6.253 23.165-2.678 7.376-10.814 10.002-16.342 14.735-23.577 20.464-15.691 23.394-54.968 41.995 3.841-20.799-1.835-26.633 4.042-30.645 7.083-2.85 14.874-4.422 22.492-3.092 4.528-2.264 31.026-25.52 32.373-26.931 1.676-3.04 1.676-6.685 2.453-10.019-9.95 5.96-20.35 11.09-30.49 16.705-11.332 7.774-22.751 17.879-37.538 16.636 5.718-15.546 3.197-34.392 10.745-33.444 9.328 1.002 18.795.674 28.072 2.384 11.211-5.234 22.302-10.866 32.476-17.948-.795-2.833-.933-6.133-3.351-8.154-9.864-9.294-18.19-20.021-27.415-29.92-24.634.553-49.198-1.987-73.677-4.267-5.2-2.539-3.248-9.587-3.49-14.252-28.34 4.389-62.962 4.925-88.827-7.705-18.276-8.905-27.192-20.174-34.308-14.321-8.291 6.315-9.44 10.533-21.853 17.879-28.186 11.553-54.883-7.51-81.329 13.958-1.166 1.166-19.68 22.324-38.626 31.993-5.874 3.559-12.87 7.083-15.599 13.785.691 9.259 9.121 15.236 14.39 22.146 2.235 6.651 1.895 6.343 2.108 11.229-5.809 2.324-13.044 3.017-26.69 4.336-17.341-33.021-15.612-37.456-9.95-56.212 3.282 1.054 6.582 2.108 9.898 3.144 6.772-3.697 13.06-8.24 20.091-11.47 14.027-6.522 22.566-32.087 26.171-47.022 1.441-6.257 1.029-17.213 6.91-16.566 14.545.276 29.954-2.056 41.684-11.384-102.798 3.829-140.223 33.334-211.702 68.719-7.243 3.574-7.188 3.598-9.639 5.079-4.095 5.828-3.422 6.937-11.436 13.198.587-3.127 1.365-6.184 2.073-9.259-1.762 2.056-3.541 4.111-5.252 6.202 4.457 7.411 10.9 13.25 17.413 18.829 4.685 5.068 27.624.715 38.972 4.457 5.605 5.562 13.617 21.535 30.024 35.931 1.173 11.14-7.924 15.365-17.223 22.543l-1.157 1.537c-3.248 11.695 2.868 26.344-7.203 35.603-21.88 19.474-13.06 32.605-54.744 63.847-1.617-23.642-7.402-25.74-3.369-31.889 5.027-3.576 10.797-5.994 16.497-8.275 1.952.052 3.921.121 5.891.207 6.444-5.399 15.286-19.836 25.584-32.131 3.887-3.749 2.401-9.363 2.677-14.131-9.691 8.292-19.555 16.428-28.952 25.066-10.584 11.235-18.059 22.019-33.496 24.236 1.399-10.555-1.434-21.075-.536-31.578.104-10.08 28.616-4.499 36.812-11.591 9.069-7.186 18.052-14.58 25.774-23.252-4.994-9.533 3.118-.364-39.732-31.872-23.605 5.177-60.487 10.467-78.756 12.472-3.628-4.042-4.647-9.397-5.459-14.563-16.672 7.529-42.635 13.424-60.738 14.943-41.858 3.759-62.367-20.504-70.636-9.311-18.213 21.579-8.977 27.51-64.297 36.709-35.81 5.347-32.891 26.329-62.016 56.281-7.342 6.426-14.977 13.025-18.812 22.284 4.008 7.687 11.108 12.731 18.052 17.534 4.509 2.868 5.943 8.223 7.549 12.973-8.344 5.061-17.793 7.704-27.052 10.52-19.241-25.409-25.583-29.19-22.336-55.797 13.482 1.832 10.155 1.758 18.259-5.873 9.059-10.326 28.95-11.778 26.379-77.892.173-4.699 6.34-4.457 9.639-5.614 51.153-11.83 39.59-48.622 43.066-69.859-58.285-24.133-115.499-50.84-174.406-73.452-19.002-7.428-38.816-12.403-57.922-19.538-65.559-23.303-117.354-51.756-155.87-18.156 3.887 2.712 7.411 5.96 9.536 10.296-9.013 11.82-4.577 6.896-20.125 8.568-3.282 8.845-2.557 18.467-2.608 27.726-.233 24.902 13.328 36.897 21.732 46.486 3.61 3.87-2.902 10.14-6.824 6.772-27.433-21.005-25.305-52.954-25.377-68.356-7.774 3.161-16.463 1.036-24.271 3.956-8.05 2.868-15.806 6.478-23.856 9.363.397 3.956-1.831 11.125 4.042 11.695 7.048-.38 13.129-6.547 20.591-4.388 3.939.225 3.68 4.664 4.301 7.515 7.843 2.038 18.968 4.025 20.246 13.802.622 12.075-4.699 23.39-6.668 35.137-2.781 16.1-3.973 32.459-4.854 48.767 58.83-12.501 41.73-68.66 75.456-103.787 11.16-12.04 30.438-15.236 44.862-7.394 25.878 14.264 18.619 56.365-5.338 57.611-15.782.829-18.479-30.687 2.332-21.179-1.572-3.61-2.47-9.294-7.376-9.587-16.64.847-26.123 16.311-.484 46.4 15.857 19.16 6.168 63.293-24.772 75.56 1.192 2.66 2.988 5.355 2.505 8.43-1.52 8.603-14.874 12.282-20.125 5.079-2.66-2.868.294-6.098 1.192-9-4.526-2.868-9.847-2.315-13.371 1.831 7.463 15.064 14.062 31.112 26.793 42.669 8.185 9.687 47.238 13.681 58.458-6.34 6.202-9.501-3.99-23.131-14.701-21.334-3.075.518-5.977 3.351-5.787 6.616 3.075 2.349 8.154 2.66 9.553 6.772-.104 4.267-3.99 6.219-7.255 7.964-3.524-1.917-7.394-3.559-10.037-6.668-7.411-8.378.587-21.801 9.968-24.392 10.382-.484 20.471 6.167 25.549 15.063 4.215 7.895 1.106 17.05-1.14 25.083 62.982-34.368 59.562-93.194 32.131-107.017 1.503 10.33 2.747 22.544-4.82 30.956-8.672 8.741-23.148 9.812-34.152 5.303-23.062-10.676-22.958-49.423.294-59.892 19.175-8.102 43.066-.069 55.141 16.515 19.141 25.178 19.09 72.125-8.896 100.556-44.072 45.361-107.525 38.193-124.585 38.592-282.477-6.252-288.257 11.765-311.308-27.415-13.743-24.013-.757-42.307 16.117-41.874 29.439-.388 26.291 51.459-9.069 28.918 17.658 32.25 25.491 27.445 43.308 28.244-18.898-16.12-14.951-44.469 10.624-46.745 6.236-.363 10.227 5.683 12.611 10.641 5.927 12.482-17.365 23.852-17.24 9.449 1.624-3.489 6.133-3.628 9.156-5.303-1.313-1.727-1.779-4.198-3.68-5.39-9.881-4.232-21.369 9.225-15.064 18.208 4.491 7.065 13.509 13.595 22.112 10.693 15.772-11.868 24.202-30.369 32.615-47.661a438.581 438.581 0 0 0-5.96-3.99l-5.39 2.332c.605 2.574 2.747 5.493.674 7.964-4.871 6.996-18.432 2.349-17.741-6.253-.328-3.87 3.438-5.839 5.718-8.275-31.734.872-63.723-1.108-77.684-29.834-16.442-35.027-12.701-69.539 18.467-94.614 18.628-14.603 13.373-58.226-8.586-60.323-8.534-.743-18.277 2.246-23.062 9.76-3.887 6.133-2.246 13.664-1.123 20.367 1.779-5.113 2.539-10.918 6.392-15.012 8.351-9.041 31.343-8.701 31.837 10.451.492 17.903-12.033 38.205-36.571 29.643-39.976-12.102-36.165-85.99 13.353-91.694-1.831-5.113-2.608-12.075-9.311-12.801l2.608-2.712c-3.092-1.227-6.15-2.505-9.225-3.766 8.033-7.117 19.279-4.751 28.797-7.653l-1.917-5.182c6.875-1.9 14.269-.328 21.006-2.021 6.253-6.875 15.945-2.608 22.181 1.987-4.267 1.486-8.499 3.23-12.04 6.098 1.347.415 4.06 1.244 5.424 1.658-.104 1.33-.294 3.973-.397 5.286 36.944 18.08 49.281 32.026 41.39 82.884 9.156 11.056 18.553 21.904 27.795 32.891 25.194-27.234 9.033-59.919 13.63-85.234-8.603 2.557-16.066-4.111-17.983-12.11 4.595-.95 7.445 2.833 10.969 4.941 3.299.311 5.2-3.42 5.908-6.133-1.762-5.476-5.666-10.192-5.528-16.221-10.721.835-6.5.096-10.641-6.115 1.365-1.313 2.729-2.608 4.094-3.904-.017-2.574 0-5.148.052-7.722-6.305 10.313-14.804 19.175-25.135 25.497-.38 3.593.898 8.81-3.369 10.52-10.399 3.731-22.077-9.259-15.219-18.847 3.524-5.96 10.831-2.937 15.046.432 22.525-41.716 19.502-68.06 70.947-58.751 7.791 2.228 9.467 11.401 11.833 18.035 2.66-.777 5.321-1.555 7.981-2.367 4.716 4.094 8.534 9.95 8.43 16.376-1.434 3.731-4.474 6.53-6.944 9.57a443.4 443.4 0 0 1 8.136 4.06 1067.81 1067.81 0 0 1-2.919 7.843c12.194 4.728 9.971 2.367 16.152 15.858 2.522 6.426 6.996 12.351 7.014 19.52.501 4.785-.397 9.967 1.866 14.407 3.714 4.44 9.726.622 12.904-2.505 2.988-4.319-1.883-8.05-4.129-11.332 2.885 1.486 6.443 2.159 8.62 4.751l-1.451 5.234c.38.812.76 1.641 1.14 2.453 4.716-2.902 9.311.311 13.509 2.315 11.793-11.489 14.368-9.936 29.937-6.564 45.579-46.501 119.963-1.38 192.855 21.438 24.331 7.121 55.798 17.947 192.13 78.134.104-2.194.224-4.371.363-6.547a766.63 766.63 0 0 1 7.428 3.8c-3.904-6.893-4.647-14.753-3.075-22.423 1.918 3.714 4.215 7.255 6.789 10.572-.57-6.875-3.766-15.945 3.8-20.211.104 2.125.294 6.374.397 8.482 4.077-4.319 7.273-9.795 12.887-12.351.846 7.618-7.221 11.401-7.463 18.57-.57 6.944-1.658 15.392 3.939 20.712 6.703-1.278 11.902-6.323 17.879-9.346 15.146-7.781 45.856-14.682 77.339-6.115 11.002 2.812 49.146 6.748 64.97-.138 17.314-6.691 17.976-10.154 24.15-14.079 12.025-6.979 25.903 1.469 28.538-54.951-30.563-12.539-32.049-17.98-37.78-32.77-29.521 11.971-25.049 12.931-37.279 12.593 15.566-26.529 25.013-22.678 41.356-22.077-2.056-3.369-3.351-9.138-8.395-8.672-45.911-3.073-46.857 1.433-66.404-12.611-12.144-15.35-43.279-13.04-47.419-33.496-1.9-9.674-3.852-20.056-.639-29.661 7.204 6.927 4.371 17.914 9.328 26.016 4.146 9.432 15.703 9.622 23.511 14.494-9.378-27.758-11.536-64.426 9.553-81.347 6.806 8.465-.363 18.553-2.591 27.26-5.182 22.008.017 49.095 19.659 62.517-3.144-7.014-8.015-13.267-10.296-20.661-.951-27.062 17.983-31.234 41.701-47.713 5.355-3.697 10.71-7.463 16.653-10.227.846.639 2.574 1.917 3.42 2.574-1.093 6.221-8.008 12.491-13.854 17.344-10.227 6.841-24.582 9.225-30.3 21.317-5.994 12.127 2.539 24.703 7.134 35.759 3.236-26.076-2.967-23.429 30.663-40.751 10.837-4.661 9.034-18.169 19.486-18.225 2.246 7.67.294 16.083-5.735 21.49 3.783 1.209 9.916 1.347 10.572 6.392 1.422 5.307-10.956 1.495-16.376.484-33.069 3.722-28.266 22.832-28.21 35.88 13.153-20.606 10.624-24.231 20.16-16.618-7.739 5.476-9.743 14.977-11.47 23.684 8.43 6.996 19.918 4.871 29.954 6.443 5.839 1.624 9.173 7.273 13.198 11.367 5.674-1.718 9.671-2.556 16.895-6.34 3.213-1.693 6.236-3.835 9.76-4.906 6.668-1.399 13.336 1.607 20.021.916 10.759-2.831 15.635-14.164 23.407-15.582 3.351 1.607 4.491 5.321 5.908 8.465-1.244 7.186 3.179 12.766 6.789 18.398.259 7.514-9.864 7.618-14.96 10.14-4.163 4.474-7.532 9.657-11.643 14.2-9.227 8.405 32.012 38.149 33.012 39.127 4.237 4.623 6.835 10.65 12.68 27.847-2.781-2.66-5.562-5.355-8.309-8.015 4.7 15.875 5.639 14.408 4.837 32.235-2.297-1.866-3.956-4.353-5.632-6.754 1.192 6.167 1.261 12.455 1.106 18.709a347.601 347.601 0 0 0-3.662 3.351l-1.036-3.282a735.587 735.587 0 0 0-1.088 5.977l65.54-33.461c50.654-25.327 104.031-37.451 159.843-37.365 9.477-16.923 1.868-11.822 15.599-42.375-4.565-1.419-5.667-1.432-11.211-5.442-2.263-3.524-2.47-7.653-1.313-11.591 2.349 1.727 4.681 3.507 7.013 5.286-3.213-6.824-1.606-14.131.795-20.902a416.35 416.35 0 0 0 4.595 10.693c.777-6.34-.466-16.256 7.808-17.828-.656 2.781-1.261 5.58-1.917 8.361 3.731-3.023 7.463-6.046 11.349-8.862l3.507-.363c-1.313 2.488-2.038 5.476-4.336 7.307-7.895 5.96-10.106 17.327-8.309 26.603 2.349 3.369 6.253.708 9.311.069 23.019-9.548 53.898-6.224 73.245 1.227 15.202 8.776 32.114 13.923 49.25 17.482 15.098 3.68 31.371.777 44.984-6.461 20.178-7.63 20.978 8.856 39.386-45.64-23.794-17.927-24.995-18.813-28.417-38.402-35.422 6.658-28.219 6.782-37.21 3.472 20.216-18.292 22.511-16.775 43.152-11.453-1.555-3.472-1.779-9.173-6.582-9.726-40.664-11.74-48.074-8.716-63.381-32.096-10.365-9.968-27.225-14.476-31.976-29.453-1.071-10.693-.604-22.664 5.182-32.027 4.785 8.015.069 17.378 3.006 25.843 1.935 9.726 12.818 12.213 18.899 18.709-1.658-15.858-1.572-32.494 4.751-47.402 4.267-10.417 9.657-22.077 20.885-26.413 5.148 10.054-5.442 17.724-8.776 26.309-8.499 18.985-9.259 44.621 6.305 60.22-5.459-20.037-9.657-19.927 1.589-36.795 6.547-9.847 19.261-11.056 29.315-15.461 10.572-3.127 20.281-9.708 31.544-10.088a54.397 54.397 0 0 1-1.019 5.994c-6.875 6.392-15.478 11.056-24.737 12.766-34.177 6.947-27.387 24.193-22.82 45.64 2.332-7.359 3.438-15.478 8.085-21.818 9.104-5.476 19.745-7.549 29.868-10.451 7.673-1.646 14.303-16.922 19.97-12.006 1.399 7.428-3.179 14.355-9.207 18.277 3.749 1.935 10.002 3.887 8.119 9.467-5.891 1.866-10.952-3.835-16.774-4.319-28.374-2.354-28.764 12.398-31.423 27.225 5.148-5.787 10.071-11.816 15.962-16.895 2.142 1.745 4.06 3.731 5.839 5.873-8.378 3.541-12.127 12.075-15.53 19.866 6.374 7.204 16.238 8.447 24.893 11.246 6.133 1.831 8.447 8.482 11.177 13.595 8.205.397 16.186-1.676 23.943-4.129 7.653-2.488 14.494 3.645 21.904 4.336 11.259-.328 20.881-13.331 26.258-8.396 4.388 6.167-.829 13.993 2.798 20.367.691 2.729 3.248 6.063 1.071 8.689-4.198 3.68-10.278 2.522-15.323 3.783-5.372 4.094-10.313 8.758-15.91 12.559 6.428 27.223 23.972 34.12 27.329 45.726 2.142 7.635 3.006 15.547 3.973 23.407a508.01 508.01 0 0 1-6.392-9c1.987 10.589 1.866 21.628-2.246 31.734a287.25 287.25 0 0 1-3.161-7.705c-.259 8.672-2.505 17.137-6.063 25.014a433.495 433.495 0 0 1-1.123-8.015c-4.509 10.762-9.881 22.233-21.386 27.069 1.002-2.367 3.023-7.083 4.025-9.449a659.544 659.544 0 0 1-5.217 4.664c.38 6.53 4.595 12.334 8.914 16.981 110.784 55.031-75.215-43.171 158.427 79.74-.449-5.096-.656-10.209-.484-15.323 2.488 3.144 4.889 6.374 7.342 9.57-1.123-7.031-3.576-15.893 3.576-20.643.207 2.989.397 5.977.553 8.983 3.749-4.612 7.324-9.501 12.248-12.973 1.019 5.718-2.643 9.967-5.718 14.234-2.298 8.655-2.902 18.916 3.006 26.344 7.202-3.607 37.439-27.466 85.423-19.469 18.052 5.718 37.193 6.34 55.987 5.96 24.228.12 40.461-18.568 48.369-20.453 6.443-1.797 13.008-5.303 15.616-11.85 4.634-11.454 6.495-28.687 6.547-41.148-25.06-8.95-31.986-16.269-37.641-32.304-31.697 13.515-27.034 13.617-37.434 12.213 17.06-23.228 18.075-22.587 41.442-21.801-1.606-2.971-3.438-5.822-5.372-8.568-14.528-.311-29.022-1.658-43.55-1.831-10.348-.017-19.918-5.321-27.484-12.023-17.355-18.641-54.166-4.54-47.782-60.6 2.056 1.537 4.785 2.954 5.165 5.822 6.807 34.228 11.145 23.12 28.693 33.928-14.454-42.106-2.289-79.99 11.056-80.466 4.543 11.419-4.958 21.334-5.442 32.528-2.781 20.488 3.196 44.793 21.714 56.333-4.422-9.069-13.699-17.707-10.589-28.624 1.969-8.396 5.372-17.447 13.181-22.06 45.862-29.307 38.36-26.835 47.212-27.83-.328 2.626.397 5.718-1.624 7.825-21.771 28.852-61.276 15.469-33.979 68.512.812-7.774.155-16.014 3.161-23.355 8.793-9.069 21.179-13.302 31.561-20.16 4.785-5.372 6.409-13.699 14.01-16.273 3.438 7.86 1.227 16.947-5.01 22.664 3.213.916 7.342.605 9.743 3.438 1.175 1.71.449 3.973.691 5.925-6.935-.852-26.039-7.594-41.286 8.983-4.215 7.152-2.764 16.014-2.85 23.926 12.795-19.495 10.129-23.787 19.261-17.603-.276 3.179-3.248 4.992-4.889 7.394-2.902 5.252-4.871 11.557-4.958 17.689 8.724 7.929 21.697 3.662 32.079 7.152 4.336 2.349 7.134 6.599 10.296 10.278 8.188-1.883 15.927-5.269 23.062-9.726 7.843-4.906 16.998 1.019 25.307-1.192 8.309-3.075 13.008-11.367 20.712-15.478 4.116 2.058 2.837 1.385 4.716 2.418 2.108 4.958 2.315 10.382 3.645 15.547 4.508 8.82 8.924 8.838 2.298 15.202-15.739 6.046-7.007-1.562-25.377 21.162 6.913 13.004 16.647 22.826 29.039 30.905 11.539 6.737 14.856 20.747 18.864 32.511-2.816-2.539-5.476-5.113-8.154-7.722a399.833 399.833 0 0 1 4.267 12.887c125.243-105.583 145.722-149.758 247.702-158.185 2.795-9.935 5.232-15.256 9.553-24.081-16.686-6.034-14.258-10.88-13.664-17.275.812.155 2.47.449 3.3.605a138.092 138.092 0 0 0 4.595 4.319c-4.655-12.2.241-20.348 1.175-22.388 1.175 3.749 2.436 7.497 3.904 11.177.656-4.042 1.192-8.119 1.952-12.144a49.236 49.236 0 0 1 2.971-5.251l3.541-.829a233.346 233.346 0 0 0-1.451 8.465c3.869-3.23 7.739-6.495 11.816-9.518.829.19 2.488.553 3.317.726-3.54 8.596-7.158 7.365-10.503 13.63-2.47 7.653-5.7 16.48-.812 23.891 9.484-2.919 18.743-6.772 28.624-8.154 23.287-1.9 48.128.743 68.46 13.042 45.199 19.343 69.185 15.024 86.218 5.804 6.823-3.593 15.461-1.002 21.853-5.873 9.948-7.376 14.53-24.417 20.661-42.427-26.346-19.547-26.696-21.34-30.023-40.457-31.649 5.238-29.22 7.942-39.179 3.714 21.082-19.111 23.952-18.09 45.501-12.11-4.073-9.278 5.048-9.05-44.569-20.453-20.053-4.497-25.909-22.75-33.479-27.45-28.124-19.459-34.102-18.082-27.121-55.866.881-1.779 2.211-3.109 4.042-3.99 3.783 8.845-.95 18.674 2.85 27.57 2.436 9.432 13.371 11.419 19.261 18.121-2.087-24.856-.656-42.707 12.571-64.733M286.183 315.947c-1.33 9-9.587 15.616-18.639 13.371.656 1.313.622 3.213 2.263 3.8 6.478-2.194 12.593-5.269 18.829-8.067-.639-3.075-1.157-6.202-2.453-9.104M213.128 427.68c18.881 16.895 38.402 34.014 61.636 44.69.207-17.171 2.246-34.204 3.749-51.271-21.818 2.211-43.204 10.416-65.385 6.581z"/></svg>